# xmcd CD database file
#
# Track frame offsets:
#	150
#	23032
#	46567
#
# Disc length: 925 seconds
#
# Revision: 3
# Processed by: cddbd v1.5.1PL0 Copyright (c) Steve Scherf et al.
# Submitted via: CDex 1.51
#
DISCID=14039b03
DTITLE=FENCE OF DEFENSE - 君のあるがままを
DYEAR=1996
DGENRE=Rock
TTITLE0=君のあるがままを
TTITLE1=逆転
TTITLE2=君のあるがままを（オリジナルカラオケ）
EXTD=YEAR: 1996
EXTT0=
EXTT1=
EXTT2=
PLAYORDER=
